<svg width="20" height="20" viewBox="0 0 20 20" fill="none" xmlns="http://www.w3.org/2000/svg">
<g clip-path="url(#clip0_47_17)">
<mask id="mask0_47_17" style="mask-type:luminance" maskUnits="userSpaceOnUse" x="0" y="0" width="20" height="20">
<path d="M20 0H0V20H20V0Z" fill="white"/>
</mask>
<g mask="url(#mask0_47_17)">
<path d="M0.666504 18.8306L2.33309 14.9924C1.05806 13.1825 0.487391 10.9694 0.728158 8.76856C0.968934 6.56773 2.00461 4.53041 3.64082 3.03894C5.27703 1.54748 7.4013 0.704405 9.61498 0.667922C11.8286 0.631449 13.9795 1.40408 15.664 2.84082C17.3485 4.27758 18.4506 6.27967 18.7639 8.4714C19.077 10.6631 18.5795 12.8937 17.3648 14.7448C16.1501 16.5957 14.3016 17.9398 12.1664 18.5247C10.031 19.1096 7.75568 18.8952 5.76728 17.9216L0.666504 18.8306Z" stroke="#E6E5E5" stroke-width="2" stroke-linecap="round" stroke-linejoin="round"/>
<path d="M6.72656 7.71949C6.72656 7.85342 6.77977 7.9819 6.87449 8.07664C6.96919 8.17129 7.09765 8.22452 7.23159 8.22452C7.36553 8.22452 7.49399 8.17129 7.58869 8.07664C7.68341 7.9819 7.73662 7.85342 7.73662 7.71949V6.70943C7.73662 6.57549 7.68341 6.44703 7.58869 6.35233C7.49399 6.25762 7.36553 6.20441 7.23159 6.20441C7.09765 6.20441 6.96919 6.25762 6.87449 6.35233C6.77977 6.44703 6.72656 6.57549 6.72656 6.70943V7.71949ZM6.72656 7.71949C6.72656 9.05892 7.25864 10.3435 8.20579 11.2905C9.15282 12.2377 10.4374 12.7698 11.7768 12.7698M11.7768 12.7698H12.7869C12.9208 12.7698 13.0493 12.7165 13.144 12.6219C13.2387 12.5271 13.2919 12.3987 13.2919 12.2647C13.2919 12.1308 13.2387 12.0023 13.144 11.9076C13.0493 11.8129 12.9208 11.7597 12.7869 11.7597H11.7768C11.6429 11.7597 11.5144 11.8129 11.4197 11.9076C11.325 12.0023 11.2718 12.1308 11.2718 12.2647C11.2718 12.3987 11.325 12.5271 11.4197 12.6219C11.5144 12.7165 11.6429 12.7698 11.7768 12.7698Z" stroke="#E6E5E5" stroke-width="2" stroke-linecap="round" stroke-linejoin="round"/>
</g>
</g>
<defs>
<clipPath id="clip0_47_17">
<rect width="20" height="20" fill="white"/>
</clipPath>
</defs>
</svg>
