<svg width="20" height="20" viewBox="0 0 20 20" fill="none" xmlns="http://www.w3.org/2000/svg">
<g clip-path="url(#clip0_21_1435)">
<path d="M10 13.9062C12.1574 13.9062 13.9062 12.1574 13.9062 10C13.9062 7.84264 12.1574 6.09375 10 6.09375C7.84264 6.09375 6.09375 7.84264 6.09375 10C6.09375 12.1574 7.84264 13.9062 10 13.9062Z" stroke="#3E7BC1" stroke-width="2" stroke-miterlimit="10"/>
<path d="M14.2969 1.01562H5.70313C3.11429 1.01562 1.01562 3.11429 1.01562 5.70313V14.2969C1.01562 16.8857 3.11429 18.9844 5.70313 18.9844H14.2969C16.8857 18.9844 18.9844 16.8857 18.9844 14.2969V5.70313C18.9844 3.11429 16.8857 1.01562 14.2969 1.01562Z" stroke="#3E7BC1" stroke-width="2" stroke-linecap="round" stroke-linejoin="round"/>
<path d="M15.0781 6.09375C15.7253 6.09375 16.25 5.56908 16.25 4.92188C16.25 4.27467 15.7253 3.75 15.0781 3.75C14.4309 3.75 13.9062 4.27467 13.9062 4.92188C13.9062 5.56908 14.4309 6.09375 15.0781 6.09375Z" fill="#3E7BC1"/>
</g>
<defs>
<clipPath id="clip0_21_1435">
<rect width="20" height="20" fill="white"/>
</clipPath>
</defs>
</svg>
