<svg width="40" height="40" viewBox="0 0 40 40" fill="none" xmlns="http://www.w3.org/2000/svg">
<path d="M29.9997 9.9997C29.6872 9.68725 29.2633 9.51172 28.8213 9.51172C28.3795 9.51172 27.9555 9.68725 27.643 9.9997L19.9997 17.643L12.3564 9.9997C12.0438 9.68725 11.62 9.51172 11.178 9.51172C10.7361 9.51172 10.3123 9.68725 9.9997 9.9997C9.68725 10.3123 9.51172 10.7361 9.51172 11.178C9.51172 11.62 9.68725 12.0438 9.9997 12.3564L17.643 19.9997L9.9997 27.643C9.68725 27.9555 9.51172 28.3795 9.51172 28.8213C9.51172 29.2633 9.68725 29.6872 9.9997 29.9997C10.3123 30.3122 10.7361 30.4877 11.178 30.4877C11.62 30.4877 12.0438 30.3122 12.3564 29.9997L19.9997 22.3563L27.643 29.9997C27.9555 30.3122 28.3795 30.4877 28.8213 30.4877C29.2633 30.4877 29.6872 30.3122 29.9997 29.9997C30.3122 29.6872 30.4877 29.2633 30.4877 28.8213C30.4877 28.3795 30.3122 27.9555 29.9997 27.643L22.3563 19.9997L29.9997 12.3564C30.3122 12.0438 30.4877 11.62 30.4877 11.178C30.4877 10.7361 30.3122 10.3123 29.9997 9.9997Z" fill="black"/>
</svg>
