<svg width="19" height="24" viewBox="0 0 19 24" fill="none" xmlns="http://www.w3.org/2000/svg">
<mask id="mask0_1_322" style="mask-type:luminance" maskUnits="userSpaceOnUse" x="-5" y="0" width="24" height="24">
<path d="M19 0H-5V24H19V0Z" fill="white"/>
</mask>
<g mask="url(#mask0_1_322)">
<path d="M7 11C7.7911 11 8.5645 10.7654 9.2223 10.3259C9.8801 9.88635 10.3928 9.26164 10.6955 8.53074C10.9983 7.79983 11.0775 6.99556 10.9231 6.21964C10.7688 5.44372 10.3878 4.73098 9.8284 4.17157C9.269 3.61216 8.5563 3.2312 7.7804 3.07686C7.0044 2.92252 6.2002 3.00173 5.4693 3.30448C4.73836 3.60723 4.11365 4.11992 3.67412 4.77772C3.2346 5.43552 3 6.20888 3 7C3 8.06087 3.42143 9.07828 4.17157 9.82843C4.92172 10.5786 5.9391 11 7 11ZM7 5C7.3956 5 7.7822 5.1173 8.1111 5.33706C8.44 5.55683 8.6964 5.86918 8.8478 6.23463C8.9991 6.60009 9.0387 7.00222 8.9616 7.39018C8.8844 7.77814 8.6939 8.13451 8.4142 8.41422C8.1345 8.69392 7.7781 8.8844 7.3902 8.96157C7.0022 9.03874 6.6001 8.99914 6.2346 8.84776C5.8692 8.69639 5.5568 8.44004 5.3371 8.11114C5.1173 7.78224 5 7.39556 5 7C5 6.46957 5.2107 5.96086 5.5858 5.58579C5.9609 5.21072 6.4696 5 7 5Z" fill="white"/>
<path d="M7 13C5.1435 13 3.36301 13.7375 2.05025 15.0503C0.7375 16.363 0 18.1435 0 20C0 20.2652 0.10536 20.5196 0.29289 20.7071C0.48043 20.8946 0.73478 21 1 21C1.26522 21 1.51957 20.8946 1.70711 20.7071C1.89464 20.5196 2 20.2652 2 20C2 18.6739 2.52678 17.4021 3.46447 16.4645C4.40215 15.5268 5.6739 15 7 15C8.3261 15 9.5979 15.5268 10.5355 16.4645C11.4732 17.4021 12 18.6739 12 20C12 20.2652 12.1054 20.5196 12.2929 20.7071C12.4804 20.8946 12.7348 21 13 21C13.2652 21 13.5196 20.8946 13.7071 20.7071C13.8946 20.5196 14 20.2652 14 20C14 18.1435 13.2625 16.363 11.9497 15.0503C10.637 13.7375 8.8565 13 7 13Z" fill="white"/>
</g>
</svg>
