<svg width="20" height="20" viewBox="0 0 20 20" fill="white" xmlns="http://www.w3.org/2000/svg">
<path d="M2.35689 13.7367C3.74163 15.1234 5.58566 15.9559 7.54159 16.0772C9.49751 16.1986 11.4303 15.6006 12.9759 14.3957L18.2939 19.7137C18.4825 19.8959 18.7351 19.9967 18.9973 19.9944C19.2595 19.9921 19.5103 19.887 19.6957 19.7015C19.8811 19.5161 19.9863 19.2653 19.9886 19.0031C19.9908 18.7409 19.89 18.4883 19.7079 18.2997L14.3899 12.9817C15.6482 11.3669 16.2431 9.33293 16.0533 7.29452C15.8634 5.25614 14.9032 3.36695 13.3684 2.01222C11.8335 0.657479 9.83971 -0.0607412 7.79356 0.00402882C5.74738 0.0687988 3.80298 0.911669 2.35689 2.36075C1.60969 3.10757 1.01696 3.9943 0.61255 4.97027C0.20815 5.94623 0 6.99232 0 8.04875C0 9.10523 0.20815 10.1512 0.61255 11.1272C1.01696 12.1032 1.60969 12.9899 2.35689 13.7367ZM3.77089 3.77675C4.75947 2.7882 6.06022 2.17299 7.45152 2.03595C8.84281 1.8989 10.2386 2.2485 11.401 3.02518C12.5635 3.80185 13.4207 4.95755 13.8266 6.29537C14.2325 7.63319 14.162 9.07033 13.627 10.362C13.0921 11.6536 12.1259 12.7199 10.893 13.379C9.66011 14.0382 8.23682 14.2494 6.86562 13.9768C5.49441 13.7042 4.26014 12.9646 3.37309 11.8841C2.48604 10.8035 2.0011 9.44883 2.00089 8.05075C1.99815 7.25633 2.1532 6.46926 2.45704 5.73523C2.76089 5.0012 3.20747 4.33482 3.77089 3.77475V3.77675Z" fill="white"/>
</svg>
