<svg width="20" height="20" viewBox="0 0 20 20" fill="none" xmlns="http://www.w3.org/2000/svg">
<g clip-path="url(#clip0_47_9)">
<path d="M6.39457 10.6704L14.5001 18.3977C14.5939 18.4871 14.7075 18.5486 14.8298 18.5762C14.9522 18.6037 15.079 18.5963 15.1978 18.5548C15.3168 18.5133 15.4236 18.439 15.508 18.3392C15.5924 18.2395 15.6516 18.1176 15.6795 17.9858L19.0701 1.95717C19.0995 1.81858 19.0933 1.67396 19.0523 1.53889C19.0114 1.4038 18.9372 1.2834 18.8377 1.19063C18.7383 1.09785 18.6173 1.03625 18.4879 1.01244C18.3586 0.988626 18.2256 1.00352 18.1035 1.0555L1.46673 8.13606C1.32174 8.19773 1.1991 8.30867 1.11714 8.45221C1.03519 8.59565 0.998331 8.76408 1.0121 8.93221C1.02586 9.10033 1.0895 9.25908 1.19349 9.38471C1.29748 9.51033 1.43624 9.59617 1.589 9.62929L6.39457 10.6704Z" stroke="#E6E5E5" stroke-width="2" stroke-linecap="round" stroke-linejoin="round"/>
<path d="M6.39404 10.6705L18.6638 1.07056" stroke="#E6E5E5" stroke-width="2" stroke-linecap="round" stroke-linejoin="round"/>
<path d="M10.4421 14.5306L7.62513 17.5824C7.52427 17.6916 7.39577 17.766 7.25589 17.7961C7.116 17.8263 6.97099 17.8108 6.83923 17.7516C6.70745 17.6926 6.59482 17.5925 6.51558 17.4639C6.43634 17.3355 6.39404 17.1844 6.39404 17.0299V10.6713" stroke="#E6E5E5" stroke-width="2" stroke-linecap="round" stroke-linejoin="round"/>
</g>
<defs>
<clipPath id="clip0_47_9">
<rect width="20" height="20" fill="white"/>
</clipPath>
</defs>
</svg>
