<svg width="19" height="19" viewBox="0 0 19 19" fill="none" xmlns="http://www.w3.org/2000/svg">
<path fill-rule="evenodd" clip-rule="evenodd" d="M0.791748 2.37492C0.791748 1.9377 1.14619 1.58325 1.58341 1.58325H14.2501C14.6873 1.58325 15.0417 1.9377 15.0417 2.37492V7.91658H17.4167C17.854 7.91658 18.2084 8.27101 18.2084 8.70825V15.0416C18.2084 15.4788 17.854 15.8333 17.4167 15.8333H15.7655L14.8099 16.7889C14.5007 17.098 13.9994 17.098 13.6903 16.7889L12.7347 15.8333H8.70841C8.27118 15.8333 7.91675 15.4788 7.91675 15.0416V12.6666H7.05716L5.70571 14.018C5.39654 14.3272 4.89529 14.3272 4.58612 14.018L3.23467 12.6666H1.58341C1.14619 12.6666 0.791748 12.3122 0.791748 11.8749V2.37492ZM13.4584 11.0833V3.16659H2.37508V11.0833H3.56258C3.77255 11.0833 3.97391 11.1667 4.12238 11.3151L5.14591 12.3387L6.16945 11.3151C6.31792 11.1667 6.51928 11.0833 6.72925 11.0833H13.4584ZM14.2501 12.6666H9.50008V14.2499H13.0626C13.2725 14.2499 13.4739 14.3334 13.6224 14.4818L14.2501 15.1095L14.8778 14.4818C15.0262 14.3334 15.2276 14.2499 15.4376 14.2499H16.6251V9.49992H15.0417V11.8749C15.0417 12.3122 14.6873 12.6666 14.2501 12.6666ZM3.95841 5.54158C3.95841 5.10436 4.31286 4.74992 4.75008 4.74992H9.50008C9.93732 4.74992 10.2917 5.10436 10.2917 5.54158C10.2917 5.97881 9.93732 6.33325 9.50008 6.33325H4.75008C4.31286 6.33325 3.95841 5.97881 3.95841 5.54158ZM3.95841 8.70825C3.95841 8.27101 4.31286 7.91658 4.75008 7.91658H7.12508C7.5623 7.91658 7.91675 8.27101 7.91675 8.70825C7.91675 9.14549 7.5623 9.49992 7.12508 9.49992H4.75008C4.31286 9.49992 3.95841 9.14549 3.95841 8.70825Z" fill="#7F7C7C"/>
</svg>
