<svg width="20" height="20" viewBox="0 0 20 20" fill="none" xmlns="http://www.w3.org/2000/svg">
<g clip-path="url(#clip0_21_1431)">
<path d="M6.39433 10.6704L14.4999 18.3977C14.5936 18.487 14.7073 18.5485 14.8296 18.5761C14.9519 18.6036 15.0787 18.5962 15.1976 18.5548C15.3165 18.5132 15.4233 18.4389 15.5078 18.3391C15.5922 18.2394 15.6513 18.1176 15.6792 17.9857L19.0699 1.95711C19.0992 1.81852 19.0931 1.6739 19.0521 1.53883C19.0111 1.40374 18.9369 1.28334 18.8375 1.19056C18.7381 1.09779 18.6171 1.03619 18.4877 1.01238C18.3583 0.988565 18.2254 1.00346 18.1033 1.05544L1.46649 8.136C1.3215 8.19767 1.19886 8.30861 1.11689 8.45215C1.03494 8.59559 0.998087 8.76402 1.01186 8.93215C1.02562 9.10027 1.08926 9.25902 1.19325 9.38465C1.29724 9.51027 1.436 9.59611 1.58876 9.62923L6.39433 10.6704Z" stroke="#3E7BC1" stroke-width="2" stroke-linecap="round" stroke-linejoin="round"/>
<path d="M6.39429 10.6705L18.664 1.07056" stroke="#3E7BC1" stroke-width="2" stroke-linecap="round" stroke-linejoin="round"/>
<path d="M10.4424 14.5307L7.62537 17.5824C7.52452 17.6917 7.39602 17.7661 7.25613 17.7962C7.11624 17.8264 6.97124 17.8109 6.83947 17.7517C6.70769 17.6926 6.59507 17.5925 6.51583 17.464C6.43659 17.3356 6.39429 17.1845 6.39429 17.0299V10.6714" stroke="#3E7BC1" stroke-width="2" stroke-linecap="round" stroke-linejoin="round"/>
</g>
<defs>
<clipPath id="clip0_21_1431">
<rect width="20" height="20" fill="white"/>
</clipPath>
</defs>
</svg>
