<svg width="24" height="25" viewBox="0 0 24 25" fill="none" xmlns="http://www.w3.org/2000/svg">
<g clip-path="url(#clip0_32_115)">
<mask id="mask0_32_115" style="mask-type:luminance" maskUnits="userSpaceOnUse" x="0" y="0" width="24" height="25">
<path d="M24 0.5H0V24.5H24V0.5Z" fill="white"/>
</mask>
<g mask="url(#mask0_32_115)">
<path d="M4 15.5H6V20.5H18V4.5H6V9.5H4V3.5C4 3.23478 4.10536 2.98043 4.29289 2.79289C4.48043 2.60536 4.73478 2.5 5 2.5H19C19.2652 2.5 19.5196 2.60536 19.7071 2.79289C19.8946 2.98043 20 3.23478 20 3.5V21.5C20 21.7652 19.8946 22.0196 19.7071 22.2071C19.5196 22.3946 19.2652 22.5 19 22.5H5C4.73478 22.5 4.48043 22.3946 4.29289 22.2071C4.10536 22.0196 4 21.7652 4 21.5V15.5ZM10 11.5V8.5L15 12.5L10 16.5V13.5H2V11.5H10Z" fill="white"/>
</g>
</g>
<defs>
<clipPath id="clip0_32_115">
<rect width="24" height="24" fill="white" transform="translate(0 0.5)"/>
</clipPath>
</defs>
</svg>
