<svg width="20" height="20" viewBox="0 0 20 20" fill="none" xmlns="http://www.w3.org/2000/svg">
<g clip-path="url(#clip0_21_1439)">
<mask id="mask0_21_1439" style="mask-type:luminance" maskUnits="userSpaceOnUse" x="0" y="0" width="20" height="20">
<path d="M20 0H0V20H20V0Z" fill="white"/>
</mask>
<g mask="url(#mask0_21_1439)">
<path d="M0.666382 18.8306L2.33297 14.9924C1.05794 13.1824 0.487269 10.9693 0.728036 8.7685C0.968812 6.56767 2.00449 4.53035 3.6407 3.03888C5.27691 1.54742 7.40118 0.704344 9.61486 0.667861C11.8285 0.631388 13.9794 1.40402 15.6639 2.84076C17.3483 4.27751 18.4505 6.27961 18.7637 8.47134C19.0769 10.6631 18.5794 12.8937 17.3647 14.7447C16.15 16.5956 14.3015 17.9397 12.1663 18.5246C10.0309 19.1095 7.75555 18.8951 5.76716 17.9215L0.666382 18.8306Z" stroke="#3E7BC1" stroke-width="2" stroke-linecap="round" stroke-linejoin="round"/>
<path d="M6.72668 7.71943C6.72668 7.85336 6.77989 7.98184 6.87461 8.07658C6.96931 8.17123 7.09777 8.22446 7.23171 8.22446C7.36566 8.22446 7.49411 8.17123 7.58882 8.07658C7.68353 7.98184 7.73674 7.85336 7.73674 7.71943V6.70937C7.73674 6.57543 7.68353 6.44697 7.58882 6.35227C7.49411 6.25756 7.36566 6.20435 7.23171 6.20435C7.09777 6.20435 6.96931 6.25756 6.87461 6.35227C6.77989 6.44697 6.72668 6.57543 6.72668 6.70937V7.71943ZM6.72668 7.71943C6.72668 9.05886 7.25876 10.3434 8.20591 11.2905C9.15294 12.2376 10.4375 12.7697 11.777 12.7697M11.777 12.7697H12.787C12.9209 12.7697 13.0494 12.7165 13.1442 12.6218C13.2388 12.5271 13.292 12.3986 13.292 12.2647C13.292 12.1307 13.2388 12.0023 13.1442 11.9075C13.0494 11.8129 12.9209 11.7596 12.787 11.7596H11.777C11.643 11.7596 11.5145 11.8129 11.4198 11.9075C11.3252 12.0023 11.2719 12.1307 11.2719 12.2647C11.2719 12.3986 11.3252 12.5271 11.4198 12.6218C11.5145 12.7165 11.643 12.7697 11.777 12.7697Z" stroke="#3E7BC1" stroke-width="2" stroke-linecap="round" stroke-linejoin="round"/>
</g>
</g>
<defs>
<clipPath id="clip0_21_1439">
<rect width="20" height="20" fill="white"/>
</clipPath>
</defs>
</svg>
